<?xml version="1.0" encoding="UTF-8"?>
<svg viewBox="0 0 1000 1450" xmlns="http://www.w3.org/2000/svg">
  <!-- Gradient Background -->
  <defs>
    <linearGradient id="bgGradient" x1="0%" y1="0%" x2="100%" y2="100%">
      <stop offset="0%" style="stop-color:#f8f9fa;stop-opacity:1" />
      <stop offset="100%" style="stop-color:#e9ecef;stop-opacity:1" />
    </linearGradient>
    
    <!-- Drop shadow filter -->
    <filter id="dropShadow" x="-20%" y="-20%" width="140%" height="140%">
      <feDropShadow dx="2" dy="2" stdDeviation="2" flood-opacity="0.2"/>
    </filter>
  </defs>
  
  <!-- Background card -->
  <rect width="1000" height="1450" fill="url(#bgGradient)" rx="50" ry="50"/>
  
  <!-- Triangle pattern -->
  <g filter="url(#dropShadow)">
    <!-- Définir la taille des triangles et l'espacement -->
    <!-- 6 rangées de triangles, chaque triangle fait environ 120x100 -->
    
    <!-- Rangée 1 -->
    <!-- Triangles pointant vers le haut (blancs) -->
    <polygon fill="#ffffff" stroke="#000000" stroke-width="2" points="150,250 270,250 210,350"/>
    <polygon fill="#ffffff" stroke="#000000" stroke-width="2" points="330,250 450,250 390,350"/>
    <polygon fill="#ffffff" stroke="#000000" stroke-width="2" points="510,250 630,250 570,350"/>
    <polygon fill="#ffffff" stroke="#000000" stroke-width="2" points="690,250 810,250 750,350"/>
    
    <!-- Triangles pointant vers le bas (noirs) -->
    <polygon fill="#000000" points="210,250 330,250 270,350"/>
    <polygon fill="#000000" points="390,250 510,250 450,350"/>
    <polygon fill="#000000" points="570,250 690,250 630,350"/>
    <polygon fill="#000000" points="750,250 870,250 810,350"/>
    
    <!-- Rangée 2 -->
    <polygon fill="#000000" points="150,350 270,350 210,450"/>
    <polygon fill="#000000" points="330,350 450,350 390,450"/>
    <polygon fill="#000000" points="510,350 630,350 570,450"/>
    <polygon fill="#000000" points="690,350 810,350 750,450"/>
    
    <polygon fill="#ffffff" stroke="#000000" stroke-width="2" points="210,350 330,350 270,450"/>
    <polygon fill="#ffffff" stroke="#000000" stroke-width="2" points="390,350 510,350 450,450"/>
    <polygon fill="#ffffff" stroke="#000000" stroke-width="2" points="570,350 690,350 630,450"/>
    <polygon fill="#ffffff" stroke="#000000" stroke-width="2" points="750,350 870,350 810,450"/>
    
    <!-- Rangée 3 -->
    <polygon fill="#ffffff" stroke="#000000" stroke-width="2" points="150,450 270,450 210,550"/>
    <polygon fill="#ffffff" stroke="#000000" stroke-width="2" points="330,450 450,450 390,550"/>
    <polygon fill="#ffffff" stroke="#000000" stroke-width="2" points="510,450 630,450 570,550"/>
    <polygon fill="#ffffff" stroke="#000000" stroke-width="2" points="690,450 810,450 750,550"/>
    
    <polygon fill="#000000" points="210,450 330,450 270,550"/>
    <polygon fill="#000000" points="390,450 510,450 450,550"/>
    <polygon fill="#000000" points="570,450 690,450 630,550"/>
    <polygon fill="#000000" points="750,450 870,450 810,550"/>
    
    <!-- Rangée 4 -->
    <polygon fill="#000000" points="150,550 270,550 210,650"/>
    <polygon fill="#000000" points="330,550 450,550 390,650"/>
    <polygon fill="#000000" points="510,550 630,550 570,650"/>
    <polygon fill="#000000" points="690,550 810,550 750,650"/>
    
    <polygon fill="#ffffff" stroke="#000000" stroke-width="2" points="210,550 330,550 270,650"/>
    <polygon fill="#ffffff" stroke="#000000" stroke-width="2" points="390,550 510,550 450,650"/>
    <polygon fill="#ffffff" stroke="#000000" stroke-width="2" points="570,550 690,550 630,650"/>
    <polygon fill="#ffffff" stroke="#000000" stroke-width="2" points="750,550 870,550 810,650"/>
    
    <!-- Rangée 5 -->
    <polygon fill="#ffffff" stroke="#000000" stroke-width="2" points="150,650 270,650 210,750"/>
    <polygon fill="#ffffff" stroke="#000000" stroke-width="2" points="330,650 450,650 390,750"/>
    <polygon fill="#ffffff" stroke="#000000" stroke-width="2" points="510,650 630,650 570,750"/>
    <polygon fill="#ffffff" stroke="#000000" stroke-width="2" points="690,650 810,650 750,750"/>
    
    <polygon fill="#000000" points="210,650 330,650 270,750"/>
    <polygon fill="#000000" points="390,650 510,650 450,750"/>
    <polygon fill="#000000" points="570,650 690,650 630,750"/>
    <polygon fill="#000000" points="750,650 870,650 810,750"/>
    
    <!-- Rangée 6 -->
    <polygon fill="#000000" points="150,750 270,750 210,850"/>
    <polygon fill="#000000" points="330,750 450,750 390,850"/>
    <polygon fill="#000000" points="510,750 630,750 570,850"/>
    <polygon fill="#000000" points="690,750 810,750 750,850"/>
    
    <polygon fill="#ffffff" stroke="#000000" stroke-width="2" points="210,750 330,750 270,850"/>
    <polygon fill="#ffffff" stroke="#000000" stroke-width="2" points="390,750 510,750 450,850"/>
    <polygon fill="#ffffff" stroke="#000000" stroke-width="2" points="570,750 690,750 630,850"/>
    <polygon fill="#ffffff" stroke="#000000" stroke-width="2" points="750,750 870,750 810,850"/>
    
    <!-- Rangée 7 -->
    <polygon fill="#ffffff" stroke="#000000" stroke-width="2" points="150,850 270,850 210,950"/>
    <polygon fill="#ffffff" stroke="#000000" stroke-width="2" points="330,850 450,850 390,950"/>
    <polygon fill="#ffffff" stroke="#000000" stroke-width="2" points="510,850 630,850 570,950"/>
    <polygon fill="#ffffff" stroke="#000000" stroke-width="2" points="690,850 810,850 750,950"/>
    
    <polygon fill="#000000" points="210,850 330,850 270,950"/>
    <polygon fill="#000000" points="390,850 510,850 450,950"/>
    <polygon fill="#000000" points="570,850 690,850 630,950"/>
    <polygon fill="#000000" points="750,850 870,850 810,950"/>
    
    <!-- Rangée 8 -->
    <polygon fill="#000000" points="150,950 270,950 210,1050"/>
    <polygon fill="#000000" points="330,950 450,950 390,1050"/>
    <polygon fill="#000000" points="510,950 630,950 570,1050"/>
    <polygon fill="#000000" points="690,950 810,950 750,1050"/>
    
    <polygon fill="#ffffff" stroke="#000000" stroke-width="2" points="210,950 330,950 270,1050"/>
    <polygon fill="#ffffff" stroke="#000000" stroke-width="2" points="390,950 510,950 450,1050"/>
    <polygon fill="#ffffff" stroke="#000000" stroke-width="2" points="570,950 690,950 630,1050"/>
    <polygon fill="#ffffff" stroke="#000000" stroke-width="2" points="750,950 870,950 810,1050"/>
    
    <!-- Rangée 9 -->
    <polygon fill="#ffffff" stroke="#000000" stroke-width="2" points="150,1050 270,1050 210,1150"/>
    <polygon fill="#ffffff" stroke="#000000" stroke-width="2" points="330,1050 450,1050 390,1150"/>
    <polygon fill="#ffffff" stroke="#000000" stroke-width="2" points="510,1050 630,1050 570,1150"/>
    <polygon fill="#ffffff" stroke="#000000" stroke-width="2" points="690,1050 810,1050 750,1150"/>
    
    <polygon fill="#000000" points="210,1050 330,1050 270,1150"/>
    <polygon fill="#000000" points="390,1050 510,1050 450,1150"/>
    <polygon fill="#000000" points="570,1050 690,1050 630,1150"/>
    <polygon fill="#000000" points="750,1050 870,1050 810,1150"/>
  </g>
  
  <!-- White border -->
  <rect width="950" height="1400" x="25" y="25" fill="none" stroke="white" stroke-width="25" rx="25" ry="25"/>
</svg>