<?xml version="1.0" encoding="UTF-8"?>
<svg width="1000" height="1450" viewBox="0 0 1000 1450" xmlns="http://www.w3.org/2000/svg">
  <defs>
    
  <style>
    .pattern-stroke {
      fill: none;
      stroke: var(--pattern-color);
      stroke-width: 4;
      stroke-linecap: round;
      stroke-linejoin: round;
    }
    
    .pattern-fill {
      fill: var(--pattern-color);
      stroke: none;
    }
    
    .pattern-thin {
      fill: none;
      stroke: var(--pattern-color);
      stroke-width: 2;
      stroke-linecap: round;
      stroke-linejoin: round;
    }
    
    .pattern-thick {
      fill: none;
      stroke: var(--pattern-color);
      stroke-width: 6;
      stroke-linecap: round;
      stroke-linejoin: round;
    }
    
    .background {
      fill: var(--bg-color);
    }
    
    .border {
      fill: none;
      stroke: white;
      stroke-width: 25;
      rx: 25;
      ry: 25;
    }
  </style>

    <style>
      :root {
        --bg-color: #FFFFFF;
        --pattern-color: #000000;
      }
    </style>
    
    <!-- Subtle 3D gradient for background -->
    <radialGradient id="bgGradient" cx="50%" cy="40%" r="80%">
      <stop offset="0%" style="stop-color:#ffffff;stop-opacity:1" />
      <stop offset="100%" style="stop-color:#e5e5e5;stop-opacity:1" />
    </radialGradient>
    
    <!-- Subtle shadow for patterns -->
    <filter id="dropShadow">
      <feDropShadow dx="1" dy="2" stdDeviation="2" flood-opacity="0.3"/>
    </filter>
  </defs>
  
  <!-- Background with gradient -->
  <rect width="1000" height="1450" fill="url(#bgGradient)" rx="25" ry="25"/>
  
  <!-- Pattern content with subtle shadow -->
  <g filter="url(#dropShadow)">
    
    <!-- Central mandala -->
    <circle class="pattern-stroke" cx="500" cy="725" r="120" stroke-width="5"/>
    <circle class="pattern-stroke" cx="500" cy="725" r="90" stroke-width="5"/>
    <circle class="pattern-stroke" cx="500" cy="725" r="60" stroke-width="5"/>
    
    <!-- Mandala petals -->
    <g transform="translate(500,725)">
      <!-- 8 main petals -->
      <ellipse class="pattern-stroke" cx="0" cy="-80" rx="15" ry="30" stroke-width="3"/>
      <ellipse class="pattern-stroke" cx="57" cy="-57" rx="15" ry="30" transform="rotate(45)" stroke-width="3"/>
      <ellipse class="pattern-stroke" cx="80" cy="0" rx="15" ry="30" transform="rotate(90)" stroke-width="3"/>
      <ellipse class="pattern-stroke" cx="57" cy="57" rx="15" ry="30" transform="rotate(135)" stroke-width="3"/>
      <ellipse class="pattern-stroke" cx="0" cy="80" rx="15" ry="30" transform="rotate(180)" stroke-width="3"/>
      <ellipse class="pattern-stroke" cx="-57" cy="57" rx="15" ry="30" transform="rotate(225)" stroke-width="3"/>
      <ellipse class="pattern-stroke" cx="-80" cy="0" rx="15" ry="30" transform="rotate(270)" stroke-width="3"/>
      <ellipse class="pattern-stroke" cx="-57" cy="-57" rx="15" ry="30" transform="rotate(315)" stroke-width="3"/>
      
      <!-- Inner decorative elements -->
      <circle class="pattern-fill" cx="0" cy="-45" r="8"/>
      <circle class="pattern-fill" cx="32" cy="-32" r="8"/>
      <circle class="pattern-fill" cx="45" cy="0" r="8"/>
      <circle class="pattern-fill" cx="32" cy="32" r="8"/>
      <circle class="pattern-fill" cx="0" cy="45" r="8"/>
      <circle class="pattern-fill" cx="-32" cy="32" r="8"/>
      <circle class="pattern-fill" cx="-45" cy="0" r="8"/>
      <circle class="pattern-fill" cx="-32" cy="-32" r="8"/>
    </g>
    
    <!-- Central core -->
    <circle class="pattern-fill" cx="500" cy="725" r="25"/>
    
    <!-- Corner mandala elements -->
    <circle class="pattern-stroke" cx="250" cy="350" r="40" stroke-width="3"/>
    <circle class="pattern-stroke" cx="750" cy="350" r="40" stroke-width="3"/>
    <circle class="pattern-stroke" cx="250" cy="1100" r="40" stroke-width="3"/>
    <circle class="pattern-stroke" cx="750" cy="1100" r="40" stroke-width="3"/>
  
  </g>
  
  <!-- White border -->
  <rect width="950" height="1400" x="25" y="25" class="border"/>
</svg>