<?xml version="1.0" encoding="UTF-8"?>
<svg width="1000" height="1450" viewBox="0 0 1000 1450" xmlns="http://www.w3.org/2000/svg">
  <defs>
    
  <style>
    .pattern-stroke {
      fill: none;
      stroke: var(--pattern-color);
      stroke-width: 4;
      stroke-linecap: round;
      stroke-linejoin: round;
    }
    
    .pattern-fill {
      fill: var(--pattern-color);
      stroke: none;
    }
    
    .pattern-thin {
      fill: none;
      stroke: var(--pattern-color);
      stroke-width: 2;
      stroke-linecap: round;
      stroke-linejoin: round;
    }
    
    .pattern-thick {
      fill: none;
      stroke: var(--pattern-color);
      stroke-width: 6;
      stroke-linecap: round;
      stroke-linejoin: round;
    }
    
    .background {
      fill: var(--bg-color);
    }
    
    .border {
      fill: none;
      stroke: white;
      stroke-width: 25;
      rx: 25;
      ry: 25;
    }
  </style>

    <style>
      :root {
        --bg-color: #3F51B5;
        --pattern-color: #FFFFFF;
      }
    </style>
    
    <!-- Subtle 3D gradient for background -->
    <radialGradient id="bgGradient" cx="50%" cy="40%" r="80%">
      <stop offset="0%" style="stop-color:#5262bc;stop-opacity:1" />
      <stop offset="100%" style="stop-color:#3848a2;stop-opacity:1" />
    </radialGradient>
    
    <!-- Subtle shadow for patterns -->
    <filter id="dropShadow">
      <feDropShadow dx="1" dy="2" stdDeviation="2" flood-opacity="0.3"/>
    </filter>
  </defs>
  
  <!-- Background with gradient -->
  <rect width="1000" height="1450" fill="url(#bgGradient)" rx="50" ry="50"/>
  
  <!-- Pattern content with subtle shadow -->
  <g filter="url(#dropShadow)">
    
    <!-- Central diamond -->
    <polygon class="pattern-stroke" points="500,600 600,725 500,850 400,725" stroke-width="5"/>
    <polygon class="pattern-fill" points="500,650 550,725 500,800 450,725"/>
    
    <!-- Side diamonds -->
    <polygon class="pattern-stroke" points="250,450 325,525 250,600 175,525" stroke-width="4"/>
    <polygon class="pattern-stroke" points="750,450 825,525 750,600 675,525" stroke-width="4"/>
    <polygon class="pattern-stroke" points="250,850 325,925 250,1000 175,925" stroke-width="4"/>
    <polygon class="pattern-stroke" points="750,850 825,925 750,1000 675,925" stroke-width="4"/>
    
    <!-- Corner accents -->
    <polygon class="pattern-fill" points="200,300 230,330 200,360 170,330"/>
    <polygon class="pattern-fill" points="800,300 830,330 800,360 770,330"/>
    <polygon class="pattern-fill" points="200,1150 230,1180 200,1210 170,1180"/>
    <polygon class="pattern-fill" points="800,1150 830,1180 800,1210 770,1180"/>
  
  </g>
  
  <!-- White border -->
  <rect width="950" height="1400" x="25" y="25" class="border"/>
</svg>