<?xml version="1.0" encoding="UTF-8"?>
<svg width="1000" height="1450" viewBox="0 0 1000 1450" xmlns="http://www.w3.org/2000/svg">
  <defs>
    
  <style>
    .pattern-stroke {
      fill: none;
      stroke: var(--pattern-color);
      stroke-width: 4;
      stroke-linecap: round;
      stroke-linejoin: round;
    }
    
    .pattern-fill {
      fill: var(--pattern-color);
      stroke: none;
    }
    
    .pattern-thin {
      fill: none;
      stroke: var(--pattern-color);
      stroke-width: 2;
      stroke-linecap: round;
      stroke-linejoin: round;
    }
    
    .pattern-thick {
      fill: none;
      stroke: var(--pattern-color);
      stroke-width: 6;
      stroke-linecap: round;
      stroke-linejoin: round;
    }
    
    .background {
      fill: var(--bg-color);
    }
    
    .border {
      fill: none;
      stroke: white;
      stroke-width: 25;
      rx: 25;
      ry: 25;
    }
  </style>

    <style>
      :root {
        --bg-color: #000000;
        --pattern-color: #FFFFFF;
      }
    </style>
    
    <!-- Subtle 3D gradient for background -->
    <radialGradient id="bgGradient" cx="50%" cy="40%" r="80%">
      <stop offset="0%" style="stop-color:#191919;stop-opacity:1" />
      <stop offset="100%" style="stop-color:#000000;stop-opacity:1" />
    </radialGradient>
    
    <!-- Subtle shadow for patterns -->
    <filter id="dropShadow">
      <feDropShadow dx="1" dy="2" stdDeviation="2" flood-opacity="0.3"/>
    </filter>
  </defs>
  
  <!-- Background with gradient -->
  <rect width="1000" height="1450" fill="url(#bgGradient)" rx="50" ry="50"/>
  
  <!-- Pattern content with subtle shadow -->
  <g filter="url(#dropShadow)">
    
    <!-- Central crown structure -->
    <path class="pattern-stroke" d="M250,700 L300,600 L350,700 L400,550 L450,700 L500,600 L550,700 L600,550 L650,700 L700,600 L750,700 L750,750 L250,750 Z" stroke-width="5"/>
    
    <!-- Crown jewels -->
    <circle class="pattern-fill" cx="300" cy="600" r="15"/>
    <circle class="pattern-fill" cx="400" cy="550" r="18"/>
    <circle class="pattern-fill" cx="500" cy="600" r="15"/>
    <circle class="pattern-fill" cx="600" cy="550" r="18"/>
    <circle class="pattern-fill" cx="700" cy="600" r="15"/>
    
    <!-- Crown band -->
    <rect class="pattern-stroke" x="200" y="730" width="600" height="40" stroke-width="5"/>
    <rect class="pattern-fill" x="220" y="740" width="560" height="20"/>
    
    <!-- Royal scepter -->
    <line class="pattern-stroke" x1="500" y1="770" x2="500" y2="900" stroke-width="8"/>
    <circle class="pattern-stroke" cx="500" cy="850" r="25" stroke-width="5"/>
    <circle class="pattern-fill" cx="500" cy="850" r="12"/>
    
    <!-- Corner royal accents -->
    <polygon class="pattern-fill" points="200,300 230,350 170,350"/>
    <polygon class="pattern-fill" points="800,300 830,350 770,350"/>
    <polygon class="pattern-fill" points="200,1150 230,1200 170,1200"/>
    <polygon class="pattern-fill" points="800,1150 830,1200 770,1200"/>
  
  </g>
  
  <!-- White border -->
  <rect width="950" height="1400" x="25" y="25" class="border"/>
</svg>