<?xml version="1.0" encoding="UTF-8"?>
<svg width="1000" height="1450" viewBox="0 0 1000 1450" xmlns="http://www.w3.org/2000/svg">
  <defs>
    
  <style>
    .pattern-stroke {
      fill: none;
      stroke: var(--pattern-color);
      stroke-width: 4;
      stroke-linecap: round;
      stroke-linejoin: round;
    }
    
    .pattern-fill {
      fill: var(--pattern-color);
      stroke: none;
    }
    
    .pattern-thin {
      fill: none;
      stroke: var(--pattern-color);
      stroke-width: 2;
      stroke-linecap: round;
      stroke-linejoin: round;
    }
    
    .pattern-thick {
      fill: none;
      stroke: var(--pattern-color);
      stroke-width: 6;
      stroke-linecap: round;
      stroke-linejoin: round;
    }
    
    .background {
      fill: var(--bg-color);
    }
    
    .border {
      fill: none;
      stroke: white;
      stroke-width: 25;
      rx: 25;
      ry: 25;
    }
  </style>

    <style>
      :root {
        --bg-color: #263238;
        --pattern-color: #FFFFFF;
      }
    </style>
    
    <!-- Subtle 3D gradient for background -->
    <radialGradient id="bgGradient" cx="50%" cy="40%" r="80%">
      <stop offset="0%" style="stop-color:#3b464b;stop-opacity:1" />
      <stop offset="100%" style="stop-color:#222d32;stop-opacity:1" />
    </radialGradient>
    
    <!-- Subtle shadow for patterns -->
    <filter id="dropShadow">
      <feDropShadow dx="1" dy="2" stdDeviation="2" flood-opacity="0.3"/>
    </filter>
  </defs>
  
  <!-- Background with gradient -->
  <rect width="1000" height="1450" fill="url(#bgGradient)" rx="50" ry="50"/>
  
  <!-- Pattern content with subtle shadow -->
  <g filter="url(#dropShadow)">
    
    <!-- Angular geometric shadows -->
    <polygon class="pattern-fill" points="200,400 350,380 370,430 220,450"/>
    <polygon class="pattern-fill" points="400,600 550,580 570,630 420,650"/>
    <polygon class="pattern-fill" points="600,800 750,780 770,830 620,850"/>
    <polygon class="pattern-fill" points="300,1000 450,980 470,1030 320,1050"/>
    
    <!-- Shadow gradients -->
    <polygon class="pattern-stroke" points="650,400 800,380 820,480 670,500" stroke-width="4"/>
    <polygon class="pattern-stroke" points="250,800 400,780 420,880 270,900" stroke-width="4"/>
    
    <!-- Angular connectors -->
    <path class="pattern-stroke" d="M275,425 L485,615 L685,815 L395,1025" stroke-width="4"/>
    <path class="pattern-stroke" d="M735,440 L685,790 L595,815" stroke-width="4"/>
    
    <!-- Corner shadow accents -->
    <polygon class="pattern-fill" points="150,250 180,300 120,300"/>
    <polygon class="pattern-fill" points="850,250 880,300 820,300"/>
    <polygon class="pattern-fill" points="150,1200 180,1250 120,1250"/>
    <polygon class="pattern-fill" points="850,1200 880,1250 820,1250"/>
  
  </g>
  
  <!-- White border -->
  <rect width="950" height="1400" x="25" y="25" class="border"/>
</svg>