<?xml version="1.0" encoding="UTF-8"?>
<svg width="1000" height="1450" viewBox="0 0 1000 1450" xmlns="http://www.w3.org/2000/svg">
  <defs>
    
  <style>
    .pattern-stroke {
      fill: none;
      stroke: var(--pattern-color);
      stroke-width: 4;
      stroke-linecap: round;
      stroke-linejoin: round;
    }
    
    .pattern-fill {
      fill: var(--pattern-color);
      stroke: none;
    }
    
    .pattern-thin {
      fill: none;
      stroke: var(--pattern-color);
      stroke-width: 2;
      stroke-linecap: round;
      stroke-linejoin: round;
    }
    
    .pattern-thick {
      fill: none;
      stroke: var(--pattern-color);
      stroke-width: 6;
      stroke-linecap: round;
      stroke-linejoin: round;
    }
    
    .background {
      fill: var(--bg-color);
    }
    
    .border {
      fill: none;
      stroke: white;
      stroke-width: 25;
      rx: 25;
      ry: 25;
    }
  </style>

    <style>
      :root {
        --bg-color: #CDDC39;
        --pattern-color: #000000;
      }
    </style>
    
    <!-- Subtle 3D gradient for background -->
    <radialGradient id="bgGradient" cx="50%" cy="40%" r="80%">
      <stop offset="0%" style="stop-color:#d2df4c;stop-opacity:1" />
      <stop offset="100%" style="stop-color:#b8c633;stop-opacity:1" />
    </radialGradient>
    
    <!-- Subtle shadow for patterns -->
    <filter id="dropShadow">
      <feDropShadow dx="1" dy="2" stdDeviation="2" flood-opacity="0.3"/>
    </filter>
  </defs>
  
  <!-- Background with gradient -->
  <rect width="1000" height="1450" fill="url(#bgGradient)" rx="50" ry="50"/>
  
  <!-- Pattern content with subtle shadow -->
  <g filter="url(#dropShadow)">
    
    <!-- Central phoenix form -->
    <ellipse class="pattern-stroke" cx="500" cy="725" rx="30" ry="60" stroke-width="5"/>
    
    <!-- Wing outlines -->
    <path class="pattern-stroke" d="M470,725 Q350,625 250,725 Q350,825 470,725" stroke-width="5"/>
    <path class="pattern-stroke" d="M530,725 Q650,625 750,725 Q650,825 530,725" stroke-width="5"/>
    
    <!-- Wing feather details -->
    <path class="pattern-stroke" d="M420,690 Q350,660 300,690" stroke-width="3"/>
    <path class="pattern-stroke" d="M420,760 Q350,790 300,760" stroke-width="3"/>
    <path class="pattern-stroke" d="M580,690 Q650,660 700,690" stroke-width="3"/>
    <path class="pattern-stroke" d="M580,760 Q650,790 700,760" stroke-width="3"/>
    
    <!-- Tail plumes -->
    <path class="pattern-stroke" d="M500,785 Q450,885 400,985" stroke-width="4"/>
    <path class="pattern-stroke" d="M500,785 Q550,885 600,985" stroke-width="4"/>
    
    <!-- Head crest -->
    <path class="pattern-stroke" d="M480,665 Q500,615 520,665" stroke-width="4"/>
    
    <!-- Central body -->
    <circle class="pattern-fill" cx="500" cy="725" r="12"/>
  
  </g>
  
  <!-- White border -->
  <rect width="950" height="1400" x="25" y="25" class="border"/>
</svg>