<?xml version="1.0" encoding="UTF-8"?>
<svg width="1000" height="1450" viewBox="0 0 1000 1450" xmlns="http://www.w3.org/2000/svg">
  <defs>
    
  <style>
    .pattern-stroke {
      fill: none;
      stroke: var(--pattern-color);
      stroke-width: 4;
      stroke-linecap: round;
      stroke-linejoin: round;
    }
    
    .pattern-fill {
      fill: var(--pattern-color);
      stroke: none;
    }
    
    .pattern-thin {
      fill: none;
      stroke: var(--pattern-color);
      stroke-width: 2;
      stroke-linecap: round;
      stroke-linejoin: round;
    }
    
    .pattern-thick {
      fill: none;
      stroke: var(--pattern-color);
      stroke-width: 6;
      stroke-linecap: round;
      stroke-linejoin: round;
    }
    
    .background {
      fill: var(--bg-color);
    }
    
    .border {
      fill: none;
      stroke: white;
      stroke-width: 25;
      rx: 25;
      ry: 25;
    }
  </style>

    <style>
      :root {
        --bg-color: #FFC107;
        --pattern-color: #000000;
      }
    </style>
    
    <!-- Subtle 3D gradient for background -->
    <radialGradient id="bgGradient" cx="50%" cy="40%" r="80%">
      <stop offset="0%" style="stop-color:#ffc71f;stop-opacity:1" />
      <stop offset="100%" style="stop-color:#e5ad06;stop-opacity:1" />
    </radialGradient>
    
    <!-- Subtle shadow for patterns -->
    <filter id="dropShadow">
      <feDropShadow dx="1" dy="2" stdDeviation="2" flood-opacity="0.3"/>
    </filter>
  </defs>
  
  <!-- Background with gradient -->
  <rect width="1000" height="1450" fill="url(#bgGradient)" rx="25" ry="25"/>
  
  <!-- Pattern content with subtle shadow -->
  <g filter="url(#dropShadow)">
    
    <!-- Main cloud formations -->
    <ellipse class="pattern-stroke" cx="350" cy="500" rx="80" ry="50" transform="rotate(30 350 500)" stroke-width="4"/>
    <ellipse class="pattern-stroke" cx="650" cy="700" rx="70" ry="90" transform="rotate(-20 650 700)" stroke-width="4"/>
    <ellipse class="pattern-stroke" cx="400" cy="900" rx="90" ry="60" transform="rotate(45 400 900)" stroke-width="4"/>
    <ellipse class="pattern-stroke" cx="600" cy="1100" rx="80" ry="70" transform="rotate(-30 600 1100)" stroke-width="4"/>
    
    <!-- Inner cloud cores -->
    <ellipse class="pattern-fill" cx="350" cy="500" rx="30" ry="20" transform="rotate(30 350 500)"/>
    <ellipse class="pattern-fill" cx="650" cy="700" rx="25" ry="35" transform="rotate(-20 650 700)"/>
    <ellipse class="pattern-fill" cx="400" cy="900" rx="35" ry="25" transform="rotate(45 400 900)"/>
    
    <!-- Connecting wisps -->
    <path class="pattern-stroke" d="M400,550 Q500,600 600,650" stroke-width="3"/>
    <path class="pattern-stroke" d="M550,750 Q500,800 450,850" stroke-width="3"/>
    <path class="pattern-stroke" d="M450,950 Q550,1000 600,1050" stroke-width="3"/>
    
    <!-- Stellar points -->
    <circle class="pattern-fill" cx="250" cy="400" r="4"/>
    <circle class="pattern-fill" cx="750" cy="600" r="4"/>
    <circle class="pattern-fill" cx="300" cy="1200" r="4"/>
    <circle class="pattern-fill" cx="700" cy="350" r="4"/>
  
  </g>
  
  <!-- White border -->
  <rect width="950" height="1400" x="25" y="25" class="border"/>
</svg>