<!-- Template SVG for Card Backs - 1000x1450px (ratio 100:145) -->
<svg width="1000" height="1450" viewBox="0 0 1000 1450" xmlns="http://www.w3.org/2000/svg">
  <style>
    :root {
      --card-bg: #14b8a6;
      --accent: #0d9488;
      --pattern-opacity: 0.1;
    }
    
    .card-bg {
      fill: var(--card-bg);
    }
    
    .accent {
      fill: var(--accent);
      opacity: var(--pattern-opacity);
    }
    
    .border {
      stroke: var(--accent);
      stroke-width: 2;
      fill: none;
      opacity: 0.3;
    }
  </style>
  
  <!-- Main background -->
  <rect class="card-bg" width="1000" height="1450" rx="30"/>
  
  <!-- Border -->
  <rect class="border" x="20" y="20" width="960" height="1410" rx="25"/>
  
  <!-- Pattern placeholder - will be replaced by script -->
  <g id="pattern"><circle class="accent" cx="200" cy="200" r="8"/><circle class="accent" cx="150" cy="320" r="8"/><circle class="accent" cx="200" cy="440" r="8"/><circle class="accent" cx="150" cy="560" r="8"/><circle class="accent" cx="200" cy="680" r="8"/><circle class="accent" cx="150" cy="800" r="8"/><circle class="accent" cx="200" cy="920" r="8"/><circle class="accent" cx="150" cy="1040" r="8"/><circle class="accent" cx="200" cy="1160" r="8"/><circle class="accent" cx="150" cy="1280" r="8"/><circle class="accent" cx="300" cy="200" r="8"/><circle class="accent" cx="250" cy="320" r="8"/><circle class="accent" cx="300" cy="440" r="8"/><circle class="accent" cx="250" cy="560" r="8"/><circle class="accent" cx="300" cy="680" r="8"/><circle class="accent" cx="250" cy="800" r="8"/><circle class="accent" cx="300" cy="920" r="8"/><circle class="accent" cx="250" cy="1040" r="8"/><circle class="accent" cx="300" cy="1160" r="8"/><circle class="accent" cx="250" cy="1280" r="8"/><circle class="accent" cx="400" cy="200" r="8"/><circle class="accent" cx="350" cy="320" r="8"/><circle class="accent" cx="400" cy="440" r="8"/><circle class="accent" cx="350" cy="560" r="8"/><circle class="accent" cx="400" cy="680" r="8"/><circle class="accent" cx="350" cy="800" r="8"/><circle class="accent" cx="400" cy="920" r="8"/><circle class="accent" cx="350" cy="1040" r="8"/><circle class="accent" cx="400" cy="1160" r="8"/><circle class="accent" cx="350" cy="1280" r="8"/><circle class="accent" cx="500" cy="200" r="8"/><circle class="accent" cx="450" cy="320" r="8"/><circle class="accent" cx="500" cy="440" r="8"/><circle class="accent" cx="450" cy="560" r="8"/><circle class="accent" cx="500" cy="680" r="8"/><circle class="accent" cx="450" cy="800" r="8"/><circle class="accent" cx="500" cy="920" r="8"/><circle class="accent" cx="450" cy="1040" r="8"/><circle class="accent" cx="500" cy="1160" r="8"/><circle class="accent" cx="450" cy="1280" r="8"/><circle class="accent" cx="600" cy="200" r="8"/><circle class="accent" cx="550" cy="320" r="8"/><circle class="accent" cx="600" cy="440" r="8"/><circle class="accent" cx="550" cy="560" r="8"/><circle class="accent" cx="600" cy="680" r="8"/><circle class="accent" cx="550" cy="800" r="8"/><circle class="accent" cx="600" cy="920" r="8"/><circle class="accent" cx="550" cy="1040" r="8"/><circle class="accent" cx="600" cy="1160" r="8"/><circle class="accent" cx="550" cy="1280" r="8"/><circle class="accent" cx="700" cy="200" r="8"/><circle class="accent" cx="650" cy="320" r="8"/><circle class="accent" cx="700" cy="440" r="8"/><circle class="accent" cx="650" cy="560" r="8"/><circle class="accent" cx="700" cy="680" r="8"/><circle class="accent" cx="650" cy="800" r="8"/><circle class="accent" cx="700" cy="920" r="8"/><circle class="accent" cx="650" cy="1040" r="8"/><circle class="accent" cx="700" cy="1160" r="8"/><circle class="accent" cx="650" cy="1280" r="8"/><circle class="accent" cx="800" cy="200" r="8"/><circle class="accent" cx="750" cy="320" r="8"/><circle class="accent" cx="800" cy="440" r="8"/><circle class="accent" cx="750" cy="560" r="8"/><circle class="accent" cx="800" cy="680" r="8"/><circle class="accent" cx="750" cy="800" r="8"/><circle class="accent" cx="800" cy="920" r="8"/><circle class="accent" cx="750" cy="1040" r="8"/><circle class="accent" cx="800" cy="1160" r="8"/><circle class="accent" cx="750" cy="1280" r="8"/><circle class="accent" cx="900" cy="200" r="8"/><circle class="accent" cx="850" cy="320" r="8"/><circle class="accent" cx="900" cy="440" r="8"/><circle class="accent" cx="850" cy="560" r="8"/><circle class="accent" cx="900" cy="680" r="8"/><circle class="accent" cx="850" cy="800" r="8"/><circle class="accent" cx="900" cy="920" r="8"/><circle class="accent" cx="850" cy="1040" r="8"/><circle class="accent" cx="900" cy="1160" r="8"/><circle class="accent" cx="850" cy="1280" r="8"/><circle class="accent" cx="1000" cy="200" r="8"/><circle class="accent" cx="950" cy="320" r="8"/><circle class="accent" cx="1000" cy="440" r="8"/><circle class="accent" cx="950" cy="560" r="8"/><circle class="accent" cx="1000" cy="680" r="8"/><circle class="accent" cx="950" cy="800" r="8"/><circle class="accent" cx="1000" cy="920" r="8"/><circle class="accent" cx="950" cy="1040" r="8"/><circle class="accent" cx="1000" cy="1160" r="8"/><circle class="accent" cx="950" cy="1280" r="8"/></g>
</svg>