<!-- Card Back Template SVG - 1000x1450px -->
<svg width="1000" height="1450" viewBox="0 0 1000 1450" xmlns="http://www.w3.org/2000/svg">
  <defs>
    <style>
      .card-bg { fill: #14b8a6; }
      .pattern { fill: #0d9488; stroke: #0d9488; }
      .pattern-stroke { fill: none; stroke: #0d9488; stroke-width: 3; stroke-linecap: round; stroke-linejoin: round; }
      .pattern-thin { fill: none; stroke: #0d9488; stroke-width: 2; stroke-linecap: round; }
      .pattern-thick { fill: none; stroke: #0d9488; stroke-width: 4; stroke-linecap: round; }
      .pattern-fill { fill: #0d9488; }
    </style>
  </defs>
  
  <!-- Card background with rounded corners -->
  <rect class="card-bg" width="1000" height="1450" rx="50" ry="50"/>
  
  <!-- Pattern container - will be replaced by script -->
  <g id="pattern">
    <!-- Hexagonal dot pattern -->
    <circle class="pattern-fill" cx="200" cy="200" r="10"/>
    <circle class="pattern-fill" cx="350" cy="280" r="10"/>
    <circle class="pattern-fill" cx="500" cy="200" r="10"/>
    <circle class="pattern-fill" cx="650" cy="280" r="10"/>
    <circle class="pattern-fill" cx="800" cy="200" r="10"/>
    
    <circle class="pattern-fill" cx="125" cy="360" r="10"/>
    <circle class="pattern-fill" cx="275" cy="440" r="10"/>
    <circle class="pattern-fill" cx="425" cy="360" r="10"/>
    <circle class="pattern-fill" cx="575" cy="440" r="10"/>
    <circle class="pattern-fill" cx="725" cy="360" r="10"/>
    <circle class="pattern-fill" cx="875" cy="440" r="10"/>
    
    <circle class="pattern-fill" cx="200" cy="520" r="10"/>
    <circle class="pattern-fill" cx="350" cy="600" r="10"/>
    <circle class="pattern-fill" cx="500" cy="520" r="10"/>
    <circle class="pattern-fill" cx="650" cy="600" r="10"/>
    <circle class="pattern-fill" cx="800" cy="520" r="10"/>
    
    <circle class="pattern-fill" cx="125" cy="680" r="10"/>
    <circle class="pattern-fill" cx="275" cy="760" r="10"/>
    <circle class="pattern-fill" cx="425" cy="680" r="10"/>
    <circle class="pattern-fill" cx="575" cy="760" r="10"/>
    <circle class="pattern-fill" cx="725" cy="680" r="10"/>
    <circle class="pattern-fill" cx="875" cy="760" r="10"/>
    
    <circle class="pattern-fill" cx="200" cy="840" r="10"/>
    <circle class="pattern-fill" cx="350" cy="920" r="10"/>
    <circle class="pattern-fill" cx="500" cy="840" r="10"/>
    <circle class="pattern-fill" cx="650" cy="920" r="10"/>
    <circle class="pattern-fill" cx="800" cy="840" r="10"/>
    
    <circle class="pattern-fill" cx="125" cy="1000" r="10"/>
    <circle class="pattern-fill" cx="275" cy="1080" r="10"/>
    <circle class="pattern-fill" cx="425" cy="1000" r="10"/>
    <circle class="pattern-fill" cx="575" cy="1080" r="10"/>
    <circle class="pattern-fill" cx="725" cy="1000" r="10"/>
    <circle class="pattern-fill" cx="875" cy="1080" r="10"/>
    
    <circle class="pattern-fill" cx="200" cy="1160" r="10"/>
    <circle class="pattern-fill" cx="350" cy="1240" r="10"/>
    <circle class="pattern-fill" cx="500" cy="1160" r="10"/>
    <circle class="pattern-fill" cx="650" cy="1240" r="10"/>
    <circle class="pattern-fill" cx="800" cy="1160" r="10"/>
  </g>
</svg>