<!-- Template SVG for Card Backs - 1000x1450px (ratio 100:145) -->
<svg width="1000" height="1450" viewBox="0 0 1000 1450" xmlns="http://www.w3.org/2000/svg">
  <style>
    :root {
      --card-bg: #374151;
      --accent: #e5e7eb;
      --pattern-opacity: 0.1;
    }
    
    .card-bg {
      fill: var(--card-bg);
    }
    
    .accent {
      fill: var(--accent);
      opacity: var(--pattern-opacity);
    }
    
    .border {
      stroke: var(--accent);
      stroke-width: 2;
      fill: none;
      opacity: 0.3;
    }
  </style>
  
  <!-- Main background -->
  <rect class="card-bg" width="1000" height="1450" rx="30"/>
  
  <!-- Border -->
  <rect class="border" x="20" y="20" width="960" height="1410" rx="25"/>
  
  <!-- Pattern placeholder - will be replaced by script -->
  <g id="pattern">
    <polygon class="accent" points="500,200 600,400 500,600 400,400"/>
    <polygon class="accent" points="250,500 350,700 250,900 150,700"/>
    <polygon class="accent" points="750,700 850,900 750,1100 650,900"/>
    <polygon class="accent" points="300,200 350,300 300,400 250,300"/>
    <polygon class="accent" points="700,300 750,400 700,500 650,400"/>
    <polygon class="accent" points="150,1200 200,1300 150,1400 100,1300"/>
    <polygon class="accent" points="850,1000 900,1100 850,1200 800,1100"/>
    <line class="accent" x1="500" y1="200" x2="500" y2="600" stroke-width="2"/>
    <line class="accent" x1="400" y1="400" x2="600" y2="400" stroke-width="2"/>
  </g>
</svg>