<!-- Template SVG for Card Backs - 1000x1450px (ratio 100:145) -->
<svg width="1000" height="1450" viewBox="0 0 1000 1450" xmlns="http://www.w3.org/2000/svg">
  <style>
    :root {
      --card-bg: #111827;
      --accent: #fbbf24;
      --pattern-opacity: 0.1;
    }
    
    .card-bg {
      fill: var(--card-bg);
    }
    
    .accent {
      fill: var(--accent);
      opacity: var(--pattern-opacity);
    }
    
    .border {
      stroke: var(--accent);
      stroke-width: 2;
      fill: none;
      opacity: 0.3;
    }
  </style>
  
  <!-- Main background -->
  <rect class="card-bg" width="1000" height="1450" rx="30"/>
  
  <!-- Border -->
  <rect class="border" x="20" y="20" width="960" height="1410" rx="25"/>
  
  <!-- Pattern placeholder - will be replaced by script -->
  <g id="pattern">
    <circle class="accent" cx="500" cy="600" r="120" fill="none" stroke-width="3"/>
    <polygon class="accent" points="500,480 520,540 580,540 535,575 555,635 500,600 445,635 465,575 420,540 480,540"/>
    <circle class="accent" cx="300" cy="400" r="40" fill="none" stroke-width="2"/>
    <circle class="accent" cx="700" cy="800" r="50" fill="none" stroke-width="2"/>
    <path class="accent" d="M200,300 Q250,250 300,300 Q350,350 400,300 Q450,250 500,300" stroke-width="2" fill="none"/>
    <path class="accent" d="M500,900 Q550,850 600,900 Q650,950 700,900 Q750,850 800,900" stroke-width="2" fill="none"/>
    <rect class="accent" x="150" y="1000" width="30" height="30" transform="rotate(45 165 1015)"/>
    <rect class="accent" x="820" y="500" width="30" height="30" transform="rotate(45 835 515)"/>
  </g>
</svg>