<!-- Template SVG for Card Backs - 1000x1450px (ratio 100:145) -->
<svg width="1000" height="1450" viewBox="0 0 1000 1450" xmlns="http://www.w3.org/2000/svg">
  <style>
    :root {
      --card-bg: #2563eb;
      --accent: #1e40af;
      --pattern-opacity: 0.1;
    }
    
    .card-bg {
      fill: var(--card-bg);
    }
    
    .accent {
      fill: var(--accent);
      opacity: var(--pattern-opacity);
    }
    
    .border {
      stroke: var(--accent);
      stroke-width: 2;
      fill: none;
      opacity: 0.3;
    }
  </style>
  
  <!-- Main background -->
  <rect class="card-bg" width="1000" height="1450" rx="30"/>
  
  <!-- Border -->
  <rect class="border" x="20" y="20" width="960" height="1410" rx="25"/>
  
  <!-- Pattern placeholder - will be replaced by script -->
  <g id="pattern">
    <path class="accent" d="M200,200 L250,300 L200,350 L300,450 L250,500 L350,600 L300,650" stroke-width="8" fill="none" stroke-linecap="round"/>
    <path class="accent" d="M500,250 L550,350 L500,400 L600,500 L550,550 L650,650 L600,700" stroke-width="6" fill="none" stroke-linecap="round"/>
    <path class="accent" d="M750,300 L800,400 L750,450 L850,550 L800,600 L900,700 L850,750" stroke-width="8" fill="none" stroke-linecap="round"/>
    <path class="accent" d="M150,800 L200,900 L150,950 L250,1050 L200,1100 L300,1200 L250,1250" stroke-width="6" fill="none" stroke-linecap="round"/>
  </g>
</svg>