<!-- Template SVG for Card Backs - 1000x1450px (ratio 100:145) -->
<svg width="1000" height="1450" viewBox="0 0 1000 1450" xmlns="http://www.w3.org/2000/svg">
  <style>
    :root {
      --card-bg: #3b82f6;
      --accent: #2563eb;
      --pattern-opacity: 0.1;
    }
    
    .card-bg {
      fill: var(--card-bg);
    }
    
    .accent {
      fill: var(--accent);
      opacity: var(--pattern-opacity);
    }
    
    .border {
      stroke: var(--accent);
      stroke-width: 2;
      fill: none;
      opacity: 0.3;
    }
  </style>
  
  <!-- Main background -->
  <rect class="card-bg" width="1000" height="1450" rx="30"/>
  
  <!-- Border -->
  <rect class="border" x="20" y="20" width="960" height="1410" rx="25"/>
  
  <!-- Pattern placeholder - will be replaced by script -->
  <g id="pattern">
    <polygon class="accent" points="250,250 265,285 300,285 275,305 285,340 250,320 215,340 225,305 200,285 235,285"/>
    <polygon class="accent" points="750,400 765,435 800,435 775,455 785,490 750,470 715,490 725,455 700,435 735,435"/>
    <polygon class="accent" points="400,600 415,635 450,635 425,655 435,690 400,670 365,690 375,655 350,635 385,635"/>
    <polygon class="accent" points="650,800 665,835 700,835 675,855 685,890 650,870 615,890 625,855 600,835 635,835"/>
    <polygon class="accent" points="300,1000 315,1035 350,1035 325,1055 335,1090 300,1070 265,1090 275,1055 250,1035 285,1035"/>
    <polygon class="accent" points="800,1200 815,1235 850,1235 825,1255 835,1290 800,1270 765,1290 775,1255 750,1235 785,1235"/>
  </g>
</svg>