<!-- Template SVG for Card Backs - 1000x1450px (ratio 100:145) -->
<svg width="1000" height="1450" viewBox="0 0 1000 1450" xmlns="http://www.w3.org/2000/svg">
  <style>
    :root {
      --card-bg: #9333ea;
      --accent: #7e22ce;
      --pattern-opacity: 0.1;
    }
    
    .card-bg {
      fill: var(--card-bg);
    }
    
    .accent {
      fill: var(--accent);
      opacity: var(--pattern-opacity);
    }
    
    .border {
      stroke: var(--accent);
      stroke-width: 2;
      fill: none;
      opacity: 0.3;
    }
  </style>
  
  <!-- Main background -->
  <rect class="card-bg" width="1000" height="1450" rx="30"/>
  
  <!-- Border -->
  <rect class="border" x="20" y="20" width="960" height="1410" rx="25"/>
  
  <!-- Pattern placeholder - will be replaced by script -->
  <g id="pattern">
    <ellipse class="accent" cx="300" cy="400" rx="80" ry="40" transform="rotate(30 300 400)" fill="none" stroke-width="2"/>
    <ellipse class="accent" cx="700" cy="600" rx="60" ry="80" transform="rotate(-45 700 600)" fill="none" stroke-width="2"/>
    <ellipse class="accent" cx="500" cy="800" rx="100" ry="50" transform="rotate(60 500 800)" fill="none" stroke-width="2"/>
    <ellipse class="accent" cx="200" cy="1000" rx="70" ry="90" transform="rotate(-30 200 1000)" fill="none" stroke-width="2"/>
    <ellipse class="accent" cx="800" cy="1100" rx="90" ry="60" transform="rotate(45 800 1100)" fill="none" stroke-width="2"/>
    <path class="accent" d="M400,300 Q500,250 600,300 Q650,350 700,400 Q750,450 800,400" stroke-width="1" fill="none"/>
    <path class="accent" d="M200,700 Q300,650 400,700 Q450,750 500,800 Q550,850 600,800" stroke-width="1" fill="none"/>
  </g>
</svg>