<svg viewBox="0 0 63 88" fill="none" xmlns="http://www.w3.org/2000/svg">
  <rect width="63" height="88" rx="8" fill="url(#ruby-gradient)"/>
  <rect x="1" y="1" width="61" height="86" rx="7" stroke="url(#ruby-border)" stroke-width="2"/>
  <path d="M31.5 20L40 35L31.5 50L23 35L31.5 20Z" fill="rgba(255,255,255,0.2)" stroke="rgba(255,255,255,0.3)" stroke-width="1"/>
  <path d="M31.5 38L40 53L31.5 68L23 53L31.5 38Z" fill="rgba(255,255,255,0.15)" stroke="rgba(255,255,255,0.25)" stroke-width="1"/>
  <path d="M31.5 20L35 30H28L31.5 20Z" fill="rgba(255,255,255,0.4)"/>
  <path d="M31.5 68L28 58H35L31.5 68Z" fill="rgba(255,255,255,0.4)"/>
  <circle cx="31.5" cy="35" r="1.5" fill="rgba(255,255,255,0.6)"/>
  <circle cx="31.5" cy="53" r="1.5" fill="rgba(255,255,255,0.6)"/>
  <path d="M15 44L31.5 30L48 44L31.5 58L15 44Z" fill="none" stroke="rgba(255,255,255,0.1)" stroke-width="0.5"/>
  <defs>
    <linearGradient id="ruby-gradient" x1="0" y1="0" x2="63" y2="88" gradientUnits="userSpaceOnUse">
      <stop offset="0%" style="stop-color:#dc2626"/>
      <stop offset="100%" style="stop-color:#991b1b"/>
    </linearGradient>
    <linearGradient id="ruby-border" x1="0" y1="0" x2="63" y2="88" gradientUnits="userSpaceOnUse">
      <stop offset="0%" style="stop-color:rgba(255,255,255,0.3)"/>
      <stop offset="100%" style="stop-color:rgba(255,255,255,0.1)"/>
    </linearGradient>
  </defs>
</svg>